# 3ds Max Wavefront OBJ Exporter v0.97b - (c)2007 guruware
# File Created: 19.11.2014 17:20:39

#
# object Cone001
#

v  55.8460 0.0000 -4.3592
v  75.1278 0.0000 -15.4915
v  77.3521 0.0000 -10.1217
v  78.1107 0.0000 -4.3592
v  66.9784 0.0000 -23.6410
v  71.5895 0.0000 -20.1027
v  55.8460 0.0000 -26.6239
v  61.6086 0.0000 -25.8652
v  44.7137 0.0000 -23.6410
v  50.0835 0.0000 -25.8652
v  36.5643 0.0000 -15.4915
v  40.1025 0.0000 -20.1027
v  33.5814 0.0000 -4.3592
v  34.3400 0.0000 -10.1217
v  36.5643 0.0000 6.7732
v  34.3400 0.0000 1.4033
v  44.7137 0.0000 14.9226
v  40.1025 0.0000 11.3843
v  55.8460 0.0000 17.9055
v  50.0835 0.0000 17.1468
v  66.9784 0.0000 14.9226
v  61.6086 0.0000 17.1469
v  75.1278 0.0000 6.7732
v  71.5895 0.0000 11.3843
v  77.3521 0.0000 1.4034
v  55.8460 51.0825 -4.3592
# 26 vertices

vn 0.0000 -1.0000 -0.0000
vn 0.9167 0.3996 0.0000
vn 0.8855 0.3996 -0.2373
vn 0.9101 0.3967 -0.1198
vn 0.9101 0.3967 0.1198
vn 0.7939 0.3996 -0.4584
vn 0.8481 0.3967 -0.3513
vn 0.6482 0.3996 -0.6482
vn 0.7283 0.3967 -0.5588
vn 0.4584 0.3996 -0.7939
vn 0.5588 0.3967 -0.7283
vn 0.2373 0.3996 -0.8855
vn 0.3513 0.3967 -0.8481
vn 0.0000 0.3996 -0.9167
vn 0.1198 0.3967 -0.9101
vn -0.2373 0.3996 -0.8855
vn -0.1198 0.3967 -0.9101
vn -0.4584 0.3996 -0.7939
vn -0.3513 0.3967 -0.8481
vn -0.6482 0.3996 -0.6482
vn -0.5588 0.3967 -0.7283
vn -0.7939 0.3996 -0.4584
vn -0.7283 0.3967 -0.5588
vn -0.8855 0.3996 -0.2373
vn -0.8481 0.3967 -0.3513
vn -0.9167 0.3996 -0.0000
vn -0.9101 0.3967 -0.1198
vn -0.8855 0.3996 0.2373
vn -0.9101 0.3967 0.1198
vn -0.7939 0.3996 0.4584
vn -0.8481 0.3967 0.3513
vn -0.6482 0.3996 0.6482
vn -0.7283 0.3967 0.5588
vn -0.4584 0.3996 0.7939
vn -0.5588 0.3967 0.7283
vn -0.2373 0.3996 0.8855
vn -0.3513 0.3967 0.8481
vn -0.0000 0.3996 0.9167
vn -0.1198 0.3967 0.9101
vn 0.2373 0.3996 0.8855
vn 0.1198 0.3967 0.9101
vn 0.4584 0.3996 0.7939
vn 0.3513 0.3967 0.8481
vn 0.6482 0.3996 0.6482
vn 0.5588 0.3967 0.7283
vn 0.7939 0.3996 0.4584
vn 0.7283 0.3967 0.5588
vn 0.8855 0.3996 0.2373
vn 0.8481 0.3967 0.3513
vn 1.0000 0.0000 -0.0000
# 50 vertex normals

vt 0.5000 0.0000 0.0000
vt 0.8333 0.0000 1.0000
vt 0.7917 0.0000 1.0000
vt 0.7500 0.0000 1.0000
vt 0.9167 0.0000 1.0000
vt 0.8750 0.0000 1.0000
vt 1.0000 0.0000 1.0000
vt 0.9583 0.0000 1.0000
vt 0.0833 0.0000 1.0000
vt 0.0417 0.0000 1.0000
vt -0.0000 0.0000 1.0000
vt 0.1667 0.0000 1.0000
vt 0.1250 0.0000 1.0000
vt 0.2500 0.0000 1.0000
vt 0.2083 0.0000 1.0000
vt 0.3333 0.0000 1.0000
vt 0.2917 0.0000 1.0000
vt 0.4167 0.0000 1.0000
vt 0.3750 0.0000 1.0000
vt 0.5000 0.0000 1.0000
vt 0.4583 0.0000 1.0000
vt 0.5833 0.0000 1.0000
vt 0.5417 0.0000 1.0000
vt 0.6667 0.0000 1.0000
vt 0.6250 0.0000 1.0000
vt 0.7083 0.0000 1.0000
vt 0.5000 1.0000 0.0000
# 27 texture coords

g Cone001
s 1
f 1/1/1 2/2/1 3/3/1 4/4/1 
f 1/1/1 5/5/1 6/6/1 2/2/1 
f 1/1/1 7/7/1 8/8/1 5/5/1 
f 1/1/1 9/9/1 10/10/1 7/11/1 
f 1/1/1 11/12/1 12/13/1 9/9/1 
f 1/1/1 13/14/1 14/15/1 11/12/1 
f 1/1/1 15/16/1 16/17/1 13/14/1 
f 1/1/1 17/18/1 18/19/1 15/16/1 
f 1/1/1 19/20/1 20/21/1 17/18/1 
f 1/1/1 21/22/1 22/23/1 19/20/1 
f 1/1/1 23/24/1 24/25/1 21/22/1 
f 1/1/1 4/4/1 25/26/1 23/24/1 
s 8
f 4/4/2 3/3/3 26/27/4 26/27/5 
f 3/3/3 2/2/6 26/27/7 26/27/4 
f 2/2/6 6/6/8 26/27/9 26/27/7 
f 6/6/8 5/5/10 26/27/11 26/27/9 
f 5/5/10 8/8/12 26/27/13 26/27/11 
f 8/8/12 7/7/14 26/27/15 26/27/13 
f 7/11/14 10/10/16 26/27/17 26/27/15 
f 10/10/16 9/9/18 26/27/19 26/27/17 
f 9/9/18 12/13/20 26/27/21 26/27/19 
f 12/13/20 11/12/22 26/27/23 26/27/21 
f 11/12/22 14/15/24 26/27/25 26/27/23 
f 14/15/24 13/14/26 26/27/27 26/27/25 
f 13/14/26 16/17/28 26/27/29 26/27/27 
f 16/17/28 15/16/30 26/27/31 26/27/29 
f 15/16/30 18/19/32 26/27/33 26/27/31 
f 18/19/32 17/18/34 26/27/35 26/27/33 
f 17/18/34 20/21/36 26/27/37 26/27/35 
f 20/21/36 19/20/38 26/27/39 26/27/37 
f 19/20/38 22/23/40 26/27/41 26/27/39 
f 22/23/40 21/22/42 26/27/43 26/27/41 
f 21/22/42 24/25/44 26/27/45 26/27/43 
f 24/25/44 23/24/46 26/27/47 26/27/45 
f 23/24/46 25/26/48 26/27/49 26/27/47 
f 25/26/48 4/4/2 26/27/5 26/27/49 
s 1
f 26/27/50 26/27/50 26/27/50 26/27/50 
f 26/27/50 26/27/50 26/27/50 26/27/50 
f 26/27/50 26/27/50 26/27/50 26/27/50 
f 26/27/50 26/27/50 26/27/50 26/27/50 
f 26/27/50 26/27/50 26/27/50 26/27/50 
f 26/27/50 26/27/50 26/27/50 26/27/50 
f 26/27/50 26/27/50 26/27/50 26/27/50 
f 26/27/50 26/27/50 26/27/50 26/27/50 
f 26/27/50 26/27/50 26/27/50 26/27/50 
f 26/27/50 26/27/50 26/27/50 26/27/50 
f 26/27/50 26/27/50 26/27/50 26/27/50 
f 26/27/50 26/27/50 26/27/50 26/27/50 
# 48 polygons

